<mxfile host="app.diagrams.net" modified="2023-12-05T16:14:13.880Z" agent="Mozilla/5.0 (X11; Ubuntu; Linux x86_64; rv:120.0) Gecko/20100101 Firefox/120.0" etag="9cMDlprHRIYo0nPQ3eXm" version="22.1.5" type="device">
  <diagram name="Page-1" id="Z7U4cp5vTGjU-aKZT79p">
    <mxGraphModel dx="504" dy="292" grid="1" gridSize="10" guides="1" tooltips="1" connect="1" arrows="1" fold="1" page="1" pageScale="1" pageWidth="827" pageHeight="1169" math="0" shadow="0">
      <root>
        <mxCell id="0" />
        <mxCell id="1" parent="0" />
        <mxCell id="GpDpok520oOCTpWCqN1Y-36" value="" style="rounded=0;whiteSpace=wrap;html=1;dashed=1;fillColor=none;dashPattern=1 4;" vertex="1" parent="1">
          <mxGeometry x="110" y="81" width="210" height="100" as="geometry" />
        </mxCell>
        <mxCell id="GpDpok520oOCTpWCqN1Y-35" value="" style="rounded=0;whiteSpace=wrap;html=1;dashed=1;fillColor=none;dashPattern=1 4;fontSize=11;" vertex="1" parent="1">
          <mxGeometry x="110" y="190" width="320" height="100" as="geometry" />
        </mxCell>
        <mxCell id="GpDpok520oOCTpWCqN1Y-16" value="" style="edgeStyle=orthogonalEdgeStyle;rounded=0;orthogonalLoop=1;jettySize=auto;html=1;shadow=0;fontStyle=0;labelBorderColor=none;" edge="1" parent="1" source="GpDpok520oOCTpWCqN1Y-2" target="GpDpok520oOCTpWCqN1Y-3">
          <mxGeometry relative="1" as="geometry" />
        </mxCell>
        <mxCell id="GpDpok520oOCTpWCqN1Y-2" value="Science normale" style="ellipse;whiteSpace=wrap;html=1;aspect=fixed;shadow=0;fontStyle=0;labelBorderColor=none;fillColor=#dae8fc;strokeColor=#D4E1F5;gradientColor=none;strokeWidth=2;" vertex="1" parent="1">
          <mxGeometry x="120" y="90" width="80" height="80" as="geometry" />
        </mxCell>
        <mxCell id="GpDpok520oOCTpWCqN1Y-17" value="" style="edgeStyle=orthogonalEdgeStyle;rounded=0;orthogonalLoop=1;jettySize=auto;html=1;shadow=0;fontStyle=0;labelBorderColor=none;" edge="1" parent="1" source="GpDpok520oOCTpWCqN1Y-3" target="GpDpok520oOCTpWCqN1Y-12">
          <mxGeometry relative="1" as="geometry" />
        </mxCell>
        <mxCell id="GpDpok520oOCTpWCqN1Y-3" value="Adoption unanime d&#39;un paradigme" style="ellipse;whiteSpace=wrap;html=1;aspect=fixed;shadow=0;fontStyle=0;labelBorderColor=none;fillColor=#f5f5f5;fontColor=#333333;strokeColor=none;" vertex="1" parent="1">
          <mxGeometry x="230" y="90" width="80" height="80" as="geometry" />
        </mxCell>
        <mxCell id="GpDpok520oOCTpWCqN1Y-26" value="" style="edgeStyle=orthogonalEdgeStyle;rounded=0;orthogonalLoop=1;jettySize=auto;html=1;" edge="1" parent="1" source="GpDpok520oOCTpWCqN1Y-12" target="GpDpok520oOCTpWCqN1Y-13">
          <mxGeometry relative="1" as="geometry" />
        </mxCell>
        <mxCell id="GpDpok520oOCTpWCqN1Y-12" value="&lt;font color=&quot;#cc0000&quot;&gt;Anomalie&lt;/font&gt;" style="whiteSpace=wrap;html=1;shape=mxgraph.basic.octagon2;align=center;verticalAlign=middle;dx=15;shadow=0;fontStyle=1;labelBorderColor=none;fillColor=#f8cecc;strokeColor=#CC0000;gradientColor=none;dashed=1;" vertex="1" parent="1">
          <mxGeometry x="337.5" y="90" width="85" height="80" as="geometry" />
        </mxCell>
        <mxCell id="GpDpok520oOCTpWCqN1Y-33" value="" style="edgeStyle=orthogonalEdgeStyle;rounded=0;orthogonalLoop=1;jettySize=auto;html=1;strokeColor=none;" edge="1" parent="1" source="GpDpok520oOCTpWCqN1Y-13" target="GpDpok520oOCTpWCqN1Y-32">
          <mxGeometry relative="1" as="geometry" />
        </mxCell>
        <mxCell id="GpDpok520oOCTpWCqN1Y-42" value="" style="edgeStyle=orthogonalEdgeStyle;rounded=0;orthogonalLoop=1;jettySize=auto;html=1;" edge="1" parent="1" source="GpDpok520oOCTpWCqN1Y-13" target="GpDpok520oOCTpWCqN1Y-32">
          <mxGeometry relative="1" as="geometry" />
        </mxCell>
        <mxCell id="GpDpok520oOCTpWCqN1Y-13" value="Crise scientifique" style="ellipse;whiteSpace=wrap;html=1;aspect=fixed;shadow=0;fontStyle=0;labelBorderColor=none;fillColor=#ffcc99;strokeColor=none;" vertex="1" parent="1">
          <mxGeometry x="340" y="200" width="80" height="80" as="geometry" />
        </mxCell>
        <mxCell id="GpDpok520oOCTpWCqN1Y-23" value="" style="edgeStyle=orthogonalEdgeStyle;rounded=0;orthogonalLoop=1;jettySize=auto;html=1;" edge="1" parent="1" source="GpDpok520oOCTpWCqN1Y-15" target="GpDpok520oOCTpWCqN1Y-2">
          <mxGeometry relative="1" as="geometry" />
        </mxCell>
        <mxCell id="GpDpok520oOCTpWCqN1Y-15" value="Naissance d&#39;un nouveau paradigme" style="ellipse;whiteSpace=wrap;html=1;aspect=fixed;shadow=0;fontStyle=0;labelBorderColor=none;fillColor=#fff2cc;strokeColor=none;" vertex="1" parent="1">
          <mxGeometry x="120" y="200" width="80" height="80" as="geometry" />
        </mxCell>
        <mxCell id="GpDpok520oOCTpWCqN1Y-29" value="" style="shape=waypoint;sketch=0;size=6;pointerEvents=1;points=[];fillColor=#fff2cc;resizable=0;rotatable=0;perimeter=centerPerimeter;snapToPoint=1;strokeColor=none;shadow=0;fontStyle=0;labelBorderColor=none;" vertex="1" parent="1">
          <mxGeometry x="190" y="230" width="20" height="20" as="geometry" />
        </mxCell>
        <mxCell id="GpDpok520oOCTpWCqN1Y-34" value="" style="edgeStyle=orthogonalEdgeStyle;rounded=0;orthogonalLoop=1;jettySize=auto;html=1;strokeColor=default;" edge="1" parent="1" source="GpDpok520oOCTpWCqN1Y-32" target="GpDpok520oOCTpWCqN1Y-15">
          <mxGeometry relative="1" as="geometry" />
        </mxCell>
        <mxCell id="GpDpok520oOCTpWCqN1Y-32" value="Science extraordinaire et rare" style="ellipse;whiteSpace=wrap;html=1;aspect=fixed;shadow=0;fontStyle=0;labelBorderColor=none;fillColor=#ffe6cc;strokeColor=none;" vertex="1" parent="1">
          <mxGeometry x="230" y="200" width="80" height="80" as="geometry" />
        </mxCell>
        <mxCell id="GpDpok520oOCTpWCqN1Y-37" value="&lt;div style=&quot;font-size: 12px;&quot;&gt;Épistémè&lt;/div&gt;" style="text;html=1;strokeColor=none;fillColor=none;align=center;verticalAlign=middle;whiteSpace=wrap;rounded=0;fontSize=12;fontStyle=3;fontColor=#000099;" vertex="1" parent="1">
          <mxGeometry x="110" y="61" width="60" height="20" as="geometry" />
        </mxCell>
        <mxCell id="GpDpok520oOCTpWCqN1Y-38" value="&lt;div&gt;Doxa&lt;/div&gt;" style="text;html=1;strokeColor=none;fillColor=none;align=center;verticalAlign=middle;whiteSpace=wrap;rounded=0;fontStyle=3;fontColor=#c64600;" vertex="1" parent="1">
          <mxGeometry x="369" y="290" width="90" height="20" as="geometry" />
        </mxCell>
      </root>
    </mxGraphModel>
  </diagram>
</mxfile>
